<svg xmlns="http://www.w3.org/2000/svg" xmlns:xlink="http://www.w3.org/1999/xlink" width="300" zoomAndPan="magnify" viewBox="0 0 224.87999 225" height="300" preserveAspectRatio="xMidYMid meet" version="1.0"><defs><clipPath id="30ec566741"><path d="M 2.296875 39.804688 L 222.679688 39.804688 L 222.679688 185.226562 L 2.296875 185.226562 Z M 2.296875 39.804688 " clip-rule="nonzero"/></clipPath></defs><g clip-path="url(#30ec566741)"><path fill="#ffffff" d="M 90.230469 39.953125 L 90.230469 61.9375 L 46.265625 61.9375 L 46.265625 83.921875 L 24.28125 83.921875 L 24.28125 105.90625 L 7.242188 105.90625 C 5.148438 105.9375 3.378906 107.433594 2.984375 109.476562 C 2.984375 109.476562 2.296875 113.238281 2.296875 117.996094 C 2.296875 121.019531 2.605469 124.296875 3.121094 127.613281 C 2.863281 127.683594 2.519531 127.835938 2.296875 127.886719 L 3.121094 127.886719 C 4.394531 135.839844 7.3125 144.308594 12.191406 152.34375 C 12.207031 152.378906 12.171875 152.449219 12.191406 152.484375 C 12.222656 152.566406 12.277344 152.671875 12.328125 152.757812 C 12.550781 153.804688 13.132812 154.730469 13.976562 155.367188 C 14.0625 155.417969 14.164062 155.472656 14.25 155.503906 C 15.609375 157.464844 17.035156 159.421875 18.648438 161.277344 C 30.414062 174.84375 49.511719 185.046875 77.042969 185.046875 C 121.988281 185.046875 159.996094 165.894531 181.464844 127.886719 L 221.449219 127.886719 C 216.671875 126.6875 206.417969 125.070312 208.121094 118.820312 C 202.433594 125.398438 191.613281 126.222656 183.25 124.726562 C 184.847656 121.707031 186.394531 118.632812 187.785156 115.386719 C 200.496094 115.058594 209.613281 110.972656 214.714844 106.042969 C 220.296875 100.648438 221.996094 94.636719 221.996094 94.636719 C 222.425781 92.953125 221.84375 91.1875 220.484375 90.105469 C 220.484375 90.105469 209.375 81.996094 192.730469 84.746094 C 187.992188 69.203125 175.695312 61.664062 175.695312 61.664062 C 174.785156 61.128906 173.71875 60.921875 172.671875 61.113281 C 171.96875 61.265625 171.296875 61.59375 170.746094 62.074219 C 170.746094 62.074219 167.8125 64.582031 165.390625 69.082031 C 162.96875 73.582031 160.734375 80.433594 161.542969 89.277344 C 161.921875 93.417969 163.226562 97.351562 165.113281 101.09375 C 164.050781 101.75 163.429688 102.296875 161.679688 103.019531 C 158.039062 104.53125 152.730469 105.90625 145.191406 105.90625 L 142.992188 105.90625 L 142.992188 83.921875 L 121.007812 83.921875 L 121.007812 39.953125 Z M 99.027344 48.746094 L 112.214844 48.746094 L 112.214844 61.9375 L 99.027344 61.9375 Z M 55.058594 70.730469 L 68.25 70.730469 L 68.25 83.921875 L 55.058594 83.921875 Z M 77.042969 70.730469 L 90.230469 70.730469 L 90.230469 83.921875 L 77.042969 83.921875 Z M 99.027344 70.730469 L 112.214844 70.730469 L 112.214844 83.921875 L 99.027344 83.921875 Z M 174.183594 71.691406 C 177.445312 74.113281 183.355469 79.179688 185.449219 90.242188 C 185.671875 91.460938 186.394531 92.507812 187.441406 93.160156 C 188.488281 93.8125 189.761719 94.003906 190.945312 93.675781 C 202.160156 90.601562 208.222656 93.125 211.554688 95.050781 C 210.917969 96.441406 211.023438 97.300781 208.53125 99.722656 C 204.53125 103.585938 197.746094 107.484375 185.039062 107.003906 C 183.183594 106.933594 181.480469 108.035156 180.777344 109.75 C 179.027344 114.132812 177 118.183594 174.871094 122.117188 C 174.21875 121.738281 173.667969 121.292969 173.222656 120.878906 C 167.328125 129.417969 133.152344 126.152344 130.765625 119.507812 C 123.398438 128.164062 100.503906 128.164062 93.117188 119.507812 C 90.730469 126.152344 56.414062 129.417969 50.523438 120.878906 C 45.25 125.828125 24.4375 128.867188 15.761719 118.820312 C 16.585938 121.84375 14.457031 123.800781 11.640625 125.140625 C 11.28125 122.632812 11.089844 120.246094 11.089844 117.996094 C 11.089844 116.105469 11.226562 115.933594 11.367188 114.699219 L 145.191406 114.699219 C 153.847656 114.699219 160.339844 113.050781 164.976562 111.125 C 169.613281 109.203125 172.910156 106.867188 173.359375 106.589844 C 174.421875 105.921875 175.144531 104.839844 175.351562 103.601562 C 175.558594 102.382812 175.230469 101.113281 174.457031 100.132812 C 172.019531 96.957031 170.746094 92.972656 170.335938 88.453125 C 169.699219 81.363281 171.367188 76.398438 173.082031 73.203125 C 173.667969 72.121094 173.703125 72.34375 174.183594 71.691406 Z M 33.074219 92.714844 L 46.265625 92.714844 L 46.265625 105.90625 L 33.074219 105.90625 Z M 55.058594 92.714844 L 68.25 92.714844 L 68.25 105.90625 L 55.058594 105.90625 Z M 77.042969 92.714844 L 90.230469 92.714844 L 90.230469 105.90625 L 77.042969 105.90625 Z M 99.027344 92.714844 L 112.214844 92.714844 L 112.214844 105.90625 L 99.027344 105.90625 Z M 121.007812 92.714844 L 134.199219 92.714844 L 134.199219 105.90625 L 121.007812 105.90625 Z M 12.191406 127.886719 L 171.570312 127.886719 C 151.390625 160.484375 117.882812 176.253906 77.042969 176.253906 C 52.996094 176.253906 37.402344 168.09375 27.167969 157.292969 C 46.675781 158.21875 61.789062 153.03125 61.789062 153.03125 C 64.210938 152.722656 65.945312 150.507812 65.636719 148.085938 C 65.328125 145.664062 63.113281 143.929688 60.691406 144.238281 C 60.453125 144.273438 60.226562 144.308594 60.003906 144.375 C 59.625 144.425781 59.265625 144.511719 58.90625 144.652344 C 58.90625 144.652344 40.921875 150.78125 19.882812 147.8125 C 15.933594 141.300781 13.445312 134.328125 12.191406 127.886719 Z M 72.644531 136.683594 C 70.222656 136.683594 68.25 138.65625 68.25 141.078125 C 68.25 143.5 70.222656 145.476562 72.644531 145.476562 C 75.066406 145.476562 77.042969 143.5 77.042969 141.078125 C 77.042969 140.476562 76.992188 139.945312 76.765625 139.429688 C 76.457031 139.980469 75.789062 140.390625 75.117188 140.390625 C 74.121094 140.390625 73.332031 139.464844 73.332031 138.46875 C 73.332031 137.796875 73.761719 137.265625 74.292969 136.957031 C 73.796875 136.765625 73.210938 136.683594 72.644531 136.683594 Z M 72.644531 136.683594 " fill-opacity="1" fill-rule="nonzero"/></g></svg>