<svg xmlns="http://www.w3.org/2000/svg" xmlns:xlink="http://www.w3.org/1999/xlink" width="300" zoomAndPan="magnify" viewBox="0 0 224.87999 225" height="300" preserveAspectRatio="xMidYMid meet" version="1.0"><defs><clipPath id="cd45abb868"><path d="M 3.351562 81 L 221.484375 81 L 221.484375 143.964844 L 3.351562 143.964844 Z M 3.351562 81 " clip-rule="nonzero"/></clipPath></defs><g clip-path="url(#cd45abb868)"><path fill="#83cd29" d="M 5.121094 130.113281 L 5.121094 105.910156 L 35.339844 105.910156 L 35.339844 104.496094 L 5.121094 104.496094 L 5.121094 82.414062 L 37.25 82.414062 L 37.25 81 L 3.707031 81 L 3.707031 131.527344 L 37.53125 131.527344 L 37.53125 130.113281 Z M 64.78125 95.152344 L 52.253906 111.644531 L 40.011719 95.152344 L 38.167969 95.152344 L 51.40625 112.703125 L 36.894531 131.527344 L 38.59375 131.527344 L 52.253906 113.765625 L 65.980469 131.527344 L 67.75 131.527344 L 53.171875 112.703125 L 66.480469 95.152344 Z M 71.996094 143.988281 L 71.996094 121.339844 L 72.136719 121.339844 C 72.984375 124.640625 74.664062 127.292969 77.160156 129.300781 C 79.664062 131.304688 82.847656 132.304688 86.71875 132.304688 C 89.214844 132.304688 91.433594 131.800781 93.371094 130.785156 C 95.300781 129.769531 96.921875 128.390625 98.214844 126.648438 C 99.515625 124.902344 100.503906 122.871094 101.1875 120.558594 C 101.875 118.25 102.214844 115.820312 102.214844 113.269531 C 102.214844 110.535156 101.859375 108.011719 101.15625 105.699219 C 100.445312 103.386719 99.417969 101.382812 98.074219 99.683594 C 96.730469 97.984375 95.101562 96.664062 93.191406 95.71875 C 91.28125 94.777344 89.121094 94.304688 86.71875 94.304688 C 84.875 94.304688 83.167969 94.578125 81.585938 95.121094 C 80.007812 95.660156 78.601562 96.429688 77.375 97.417969 C 76.152344 98.410156 75.089844 99.578125 74.191406 100.921875 C 73.296875 102.265625 72.609375 103.742188 72.136719 105.34375 L 71.996094 105.34375 L 71.996094 95.15625 L 70.582031 95.15625 L 70.582031 143.988281 Z M 86.71875 130.964844 C 82.285156 130.964844 78.71875 129.441406 76.03125 126.398438 C 73.34375 123.355469 71.996094 118.980469 71.996094 113.269531 C 71.996094 110.910156 72.328125 108.671875 72.984375 106.546875 C 73.648438 104.425781 74.605469 102.5625 75.851562 100.957031 C 77.101562 99.351562 78.648438 98.078125 80.488281 97.136719 C 82.332031 96.191406 84.402344 95.71875 86.71875 95.71875 C 89.074219 95.71875 91.140625 96.191406 92.90625 97.136719 C 94.679688 98.078125 96.140625 99.367188 97.292969 100.992188 C 98.453125 102.621094 99.324219 104.484375 99.914062 106.582031 C 100.503906 108.683594 100.796875 110.910156 100.796875 113.269531 C 100.796875 115.394531 100.527344 117.503906 99.988281 119.605469 C 99.445312 121.703125 98.605469 123.589844 97.472656 125.269531 C 96.34375 126.941406 94.890625 128.308594 93.121094 129.371094 C 91.351562 130.433594 89.214844 130.964844 86.71875 130.964844 Z M 110 131.527344 L 110 110.9375 C 110 108.953125 110.28125 107.019531 110.847656 105.132812 C 111.414062 103.246094 112.289062 101.582031 113.46875 100.144531 C 114.644531 98.703125 116.144531 97.574219 117.960938 96.746094 C 119.777344 95.921875 121.933594 95.578125 124.4375 95.71875 L 124.4375 94.304688 C 122.265625 94.257812 120.367188 94.492188 118.738281 95.011719 C 117.113281 95.53125 115.707031 96.238281 114.53125 97.136719 C 113.351562 98.03125 112.40625 99.082031 111.699219 100.285156 C 110.988281 101.488281 110.46875 102.773438 110.144531 104.140625 L 110 104.140625 L 110 95.15625 L 108.585938 95.15625 L 108.585938 131.527344 Z M 126.207031 113.625 L 156.636719 113.625 C 156.730469 111.125 156.484375 108.71875 155.890625 106.40625 C 155.300781 104.09375 154.359375 102.042969 153.0625 100.25 C 151.765625 98.457031 150.089844 97.019531 148.039062 95.933594 C 145.984375 94.847656 143.546875 94.304688 140.710938 94.304688 C 138.6875 94.304688 136.703125 94.730469 134.769531 95.578125 C 132.832031 96.429688 131.132812 97.667969 129.671875 99.292969 C 128.210938 100.921875 127.03125 102.914062 126.132812 105.273438 C 125.238281 107.632812 124.789062 110.324219 124.789062 113.34375 C 124.789062 116.03125 125.097656 118.542969 125.710938 120.878906 C 126.320312 123.214844 127.269531 125.242188 128.539062 126.960938 C 129.8125 128.6875 131.453125 130.019531 133.457031 130.964844 C 135.460938 131.90625 137.882812 132.355469 140.710938 132.304688 C 144.867188 132.304688 148.355469 131.136719 151.1875 128.804688 C 154.015625 126.46875 155.691406 123.179688 156.210938 118.933594 L 154.796875 118.933594 C 154.179688 122.941406 152.613281 125.953125 150.089844 127.957031 C 147.566406 129.960938 144.394531 130.964844 140.570312 130.964844 C 137.976562 130.964844 135.78125 130.515625 133.988281 129.617188 C 132.195312 128.722656 130.734375 127.492188 129.601562 125.9375 C 128.472656 124.378906 127.632812 122.554688 127.089844 120.453125 C 126.546875 118.355469 126.253906 116.078125 126.207031 113.625 Z M 155.222656 112.210938 L 126.207031 112.210938 C 126.347656 109.660156 126.820312 107.375 127.621094 105.34375 C 128.425781 103.316406 129.472656 101.582031 130.769531 100.144531 C 132.070312 98.703125 133.578125 97.609375 135.300781 96.851562 C 137.019531 96.097656 138.871094 95.71875 140.851562 95.71875 C 143.214844 95.71875 145.289062 96.15625 147.082031 97.03125 C 148.875 97.902344 150.371094 99.09375 151.578125 100.605469 C 152.777344 102.113281 153.6875 103.871094 154.300781 105.875 C 154.914062 107.882812 155.222656 109.992188 155.222656 112.210938 Z M 186.003906 105.910156 L 187.421875 105.910156 C 187.421875 101.855469 186.242188 98.90625 183.882812 97.066406 C 181.523438 95.226562 178.316406 94.304688 174.257812 94.304688 C 171.992188 94.304688 170.082031 94.589844 168.523438 95.15625 C 166.964844 95.71875 165.695312 96.453125 164.703125 97.347656 C 163.710938 98.246094 163.003906 99.234375 162.578125 100.320312 C 162.15625 101.40625 161.945312 102.445312 161.945312 103.433594 C 161.945312 105.414062 162.296875 106.996094 163.003906 108.175781 C 163.710938 109.355469 164.820312 110.273438 166.332031 110.9375 C 167.367188 111.40625 168.550781 111.832031 169.871094 112.210938 C 171.191406 112.585938 172.726562 112.988281 174.472656 113.414062 C 176.023438 113.789062 177.558594 114.167969 179.070312 114.546875 C 180.578125 114.921875 181.914062 115.429688 183.066406 116.066406 C 184.222656 116.703125 185.164062 117.515625 185.894531 118.507812 C 186.632812 119.5 186.996094 120.796875 186.996094 122.398438 C 186.996094 123.957031 186.632812 125.277344 185.894531 126.363281 C 185.164062 127.445312 184.234375 128.335938 183.101562 129.019531 C 181.972656 129.703125 180.710938 130.195312 179.316406 130.503906 C 177.925781 130.8125 176.570312 130.964844 175.25 130.964844 C 170.953125 130.964844 167.660156 130.007812 165.378906 128.097656 C 163.085938 126.183594 161.945312 123.179688 161.945312 119.074219 L 160.527344 119.074219 C 160.527344 123.648438 161.765625 127 164.242188 129.125 C 166.71875 131.246094 170.390625 132.304688 175.25 132.304688 C 176.800781 132.304688 178.375 132.132812 179.953125 131.773438 C 181.535156 131.421875 182.949219 130.84375 184.203125 130.042969 C 185.449219 129.238281 186.464844 128.203125 187.242188 126.929688 C 188.019531 125.65625 188.410156 124.101562 188.410156 122.257812 C 188.410156 120.511719 188.066406 119.097656 187.382812 118.011719 C 186.699219 116.929688 185.804688 116.03125 184.695312 115.324219 C 183.585938 114.617188 182.335938 114.0625 180.945312 113.660156 C 179.550781 113.257812 178.148438 112.871094 176.734375 112.492188 C 174.75 111.972656 173.019531 111.527344 171.53125 111.148438 C 170.046875 110.769531 168.664062 110.324219 167.390625 109.804688 C 166.167969 109.285156 165.1875 108.542969 164.457031 107.574219 C 163.726562 106.605469 163.359375 105.226562 163.359375 103.433594 C 163.359375 103.105469 163.453125 102.515625 163.640625 101.664062 C 163.832031 100.816406 164.277344 99.953125 164.984375 99.082031 C 165.695312 98.210938 166.777344 97.429688 168.238281 96.746094 C 169.707031 96.0625 171.710938 95.71875 174.257812 95.71875 C 176.003906 95.71875 177.59375 95.910156 179.03125 96.285156 C 180.472656 96.664062 181.710938 97.265625 182.75 98.089844 C 183.785156 98.917969 184.589844 99.964844 185.152344 101.242188 C 185.722656 102.515625 186.003906 104.070312 186.003906 105.910156 Z M 218.773438 105.910156 L 220.1875 105.910156 C 220.1875 101.855469 219.003906 98.90625 216.648438 97.066406 C 214.285156 95.226562 211.078125 94.304688 207.023438 94.304688 C 204.757812 94.304688 202.847656 94.589844 201.289062 95.15625 C 199.734375 95.71875 198.460938 96.453125 197.464844 97.347656 C 196.476562 98.246094 195.773438 99.234375 195.347656 100.320312 C 194.921875 101.40625 194.710938 102.445312 194.710938 103.433594 C 194.710938 105.414062 195.0625 106.996094 195.773438 108.175781 C 196.476562 109.355469 197.585938 110.273438 199.097656 110.9375 C 200.132812 111.40625 201.316406 111.832031 202.636719 112.210938 C 203.957031 112.585938 205.488281 112.988281 207.234375 113.414062 C 208.789062 113.789062 210.324219 114.167969 211.835938 114.546875 C 213.34375 114.921875 214.675781 115.429688 215.832031 116.066406 C 216.988281 116.703125 217.929688 117.515625 218.664062 118.507812 C 219.394531 119.5 219.761719 120.796875 219.761719 122.398438 C 219.761719 123.957031 219.394531 125.277344 218.664062 126.363281 C 217.929688 127.445312 217 128.335938 215.867188 129.019531 C 214.738281 129.703125 213.476562 130.195312 212.082031 130.503906 C 210.6875 130.8125 209.332031 130.964844 208.011719 130.964844 C 203.71875 130.964844 200.425781 130.007812 198.140625 128.097656 C 195.851562 126.183594 194.710938 123.179688 194.710938 119.074219 L 193.292969 119.074219 C 193.292969 123.648438 194.53125 127 197.007812 129.125 C 199.484375 131.246094 203.152344 132.304688 208.011719 132.304688 C 209.570312 132.304688 211.140625 132.132812 212.71875 131.773438 C 214.300781 131.421875 215.714844 130.84375 216.964844 130.042969 C 218.214844 129.238281 219.230469 128.203125 220.007812 126.929688 C 220.785156 125.65625 221.175781 124.101562 221.175781 122.257812 C 221.175781 120.511719 220.832031 119.097656 220.148438 118.011719 C 219.464844 116.929688 218.566406 116.03125 217.460938 115.324219 C 216.351562 114.617188 215.101562 114.0625 213.707031 113.660156 C 212.320312 113.257812 210.914062 112.871094 209.5 112.492188 C 207.515625 111.972656 205.78125 111.527344 204.296875 111.148438 C 202.808594 110.769531 201.433594 110.324219 200.160156 109.804688 C 198.933594 109.285156 197.949219 108.542969 197.21875 107.574219 C 196.488281 106.605469 196.125 105.226562 196.125 103.433594 C 196.125 103.105469 196.21875 102.515625 196.410156 101.664062 C 196.597656 100.816406 197.046875 99.953125 197.75 99.082031 C 198.460938 98.210938 199.542969 97.429688 201.007812 96.746094 C 202.46875 96.0625 204.476562 95.71875 207.023438 95.71875 C 208.769531 95.71875 210.363281 95.910156 211.796875 96.285156 C 213.238281 96.664062 214.476562 97.265625 215.515625 98.089844 C 216.550781 98.917969 217.351562 99.964844 217.921875 101.242188 C 218.488281 102.515625 218.773438 104.070312 218.773438 105.910156 Z M 218.773438 105.910156 " fill-opacity="1" fill-rule="nonzero"/></g></svg>