<svg xmlns="http://www.w3.org/2000/svg" xmlns:xlink="http://www.w3.org/1999/xlink" width="300" zoomAndPan="magnify" viewBox="0 0 224.87999 225" height="300" preserveAspectRatio="xMidYMid meet" version="1.0"><path fill="#ffffff" d="M 99.320312 5.722656 C 49.226562 11.273438 8.402344 51.699219 2.359375 101.714844 C 1.96875 104.855469 1.710938 108.011719 1.589844 111.175781 C 1.46875 114.335938 1.484375 117.5 1.636719 120.664062 C 1.785156 123.824219 2.070312 126.976562 2.492188 130.113281 C 2.914062 133.253906 3.46875 136.367188 4.15625 139.457031 C 4.84375 142.546875 5.664062 145.601562 6.613281 148.625 C 7.5625 151.644531 8.640625 154.617188 9.84375 157.546875 C 11.046875 160.472656 12.375 163.34375 13.828125 166.160156 C 15.277344 168.972656 16.847656 171.71875 18.535156 174.398438 C 20.21875 177.078125 22.019531 179.679688 23.929688 182.207031 C 25.839844 184.730469 27.851562 187.171875 29.972656 189.523438 C 32.089844 191.875 34.304688 194.132812 36.617188 196.296875 C 38.929688 198.457031 41.332031 200.519531 43.820312 202.472656 C 46.308594 204.429688 48.878906 206.277344 51.523438 208.015625 C 54.171875 209.75 56.890625 211.371094 59.675781 212.875 C 62.460938 214.378906 65.308594 215.757812 68.210938 217.019531 C 71.117188 218.277344 74.070312 219.410156 77.074219 220.417969 C 82.601562 221.300781 84.367188 217.875 84.367188 214.894531 L 84.367188 196.222656 C 53.769531 202.867188 47.253906 181.425781 47.253906 181.425781 C 42.1875 168.609375 34.992188 165.183594 34.992188 165.183594 C 24.933594 158.332031 35.773438 158.558594 35.773438 158.558594 C 46.816406 159.34375 52.671875 169.9375 52.671875 169.9375 C 62.285156 186.726562 78.519531 181.753906 84.816406 179.105469 C 85.808594 171.925781 88.722656 167.0625 91.773438 164.300781 C 67.210938 161.539062 41.507812 152.039062 41.507812 109.957031 C 41.507812 97.695312 45.707031 87.867188 52.882812 80.023438 C 51.78125 77.261719 47.910156 65.773438 53.988281 50.859375 C 53.988281 50.859375 63.269531 47.875 84.367188 62.128906 C 88.871094 60.917969 93.433594 60.007812 98.054688 59.394531 C 102.675781 58.785156 107.320312 58.476562 111.980469 58.476562 C 116.644531 58.476562 121.285156 58.785156 125.910156 59.394531 C 130.53125 60.007812 135.09375 60.917969 139.59375 62.128906 C 160.710938 47.875 169.976562 50.859375 169.976562 50.859375 C 176.042969 65.773438 172.179688 77.261719 171.078125 80.023438 C 178.257812 87.84375 182.457031 97.695312 182.457031 109.957031 C 182.457031 152.148438 156.601562 161.429688 131.976562 164.191406 C 135.949219 167.617188 139.59375 174.355469 139.59375 184.625 L 139.59375 214.894531 C 139.59375 217.875 141.363281 221.410156 147 220.417969 C 148.601562 219.882812 150.191406 219.308594 151.765625 218.699219 C 153.339844 218.089844 154.898438 217.445312 156.445312 216.761719 C 157.992188 216.082031 159.519531 215.367188 161.03125 214.617188 C 162.546875 213.863281 164.039062 213.078125 165.515625 212.261719 C 166.992188 211.441406 168.449219 210.589844 169.886719 209.703125 C 171.324219 208.816406 172.742188 207.898438 174.136719 206.945312 C 175.535156 205.996094 176.90625 205.011719 178.257812 204 C 179.605469 202.984375 180.933594 201.941406 182.238281 200.867188 C 183.539062 199.789062 184.816406 198.6875 186.070312 197.554688 C 187.320312 196.421875 188.546875 195.257812 189.746094 194.070312 C 190.945312 192.878906 192.113281 191.664062 193.257812 190.421875 C 194.402344 189.179688 195.515625 187.910156 196.601562 186.613281 C 197.683594 185.320312 198.738281 184.003906 199.765625 182.660156 C 200.789062 181.316406 201.78125 179.953125 202.746094 178.566406 C 203.707031 177.175781 204.636719 175.765625 205.535156 174.335938 C 206.429688 172.90625 207.296875 171.457031 208.125 169.984375 C 208.957031 168.515625 209.753906 167.027344 210.515625 165.519531 C 211.28125 164.011719 212.007812 162.488281 212.699219 160.949219 C 213.394531 159.410156 214.050781 157.855469 214.671875 156.285156 C 215.292969 154.714844 215.878906 153.132812 216.429688 151.535156 C 216.976562 149.9375 217.492188 148.328125 217.964844 146.707031 C 218.441406 145.085938 218.878906 143.457031 219.28125 141.816406 C 219.679688 140.175781 220.042969 138.527344 220.371094 136.871094 C 220.695312 135.210938 220.980469 133.550781 221.230469 131.878906 C 221.480469 130.207031 221.691406 128.53125 221.863281 126.851562 C 222.035156 125.171875 222.167969 123.488281 222.261719 121.804688 C 222.359375 120.117188 222.414062 118.429688 222.433594 116.742188 C 222.449219 115.054688 222.429688 113.363281 222.371094 111.675781 C 222.308594 109.988281 222.210938 108.304688 222.074219 106.621094 C 221.9375 104.9375 221.761719 103.257812 221.550781 101.582031 C 221.335938 99.90625 221.082031 98.238281 220.792969 96.574219 C 220.503906 94.910156 220.175781 93.253906 219.808594 91.605469 C 219.441406 89.957031 219.039062 88.320312 218.597656 86.6875 C 218.15625 85.058594 217.679688 83.4375 217.164062 81.832031 C 216.648438 80.222656 216.09375 78.628906 215.507812 77.042969 C 214.917969 75.460938 214.292969 73.894531 213.632812 72.339844 C 212.972656 70.785156 212.277344 69.246094 211.546875 67.722656 C 210.816406 66.199219 210.050781 64.695312 209.25 63.207031 C 208.449219 61.722656 207.617188 60.253906 206.75 58.804688 C 205.882812 57.355469 204.984375 55.925781 204.050781 54.519531 C 203.117188 53.109375 202.152344 51.722656 201.15625 50.359375 C 200.160156 48.996094 199.132812 47.65625 198.078125 46.339844 C 197.019531 45.023438 195.933594 43.730469 194.816406 42.464844 C 193.699219 41.199219 192.554688 39.957031 191.378906 38.742188 C 190.207031 37.527344 189.007812 36.339844 187.777344 35.183594 C 186.550781 34.023438 185.296875 32.890625 184.015625 31.789062 C 182.738281 30.6875 181.433594 29.617188 180.105469 28.574219 C 178.773438 27.53125 177.421875 26.519531 176.046875 25.539062 C 174.671875 24.558594 173.277344 23.613281 171.855469 22.695312 C 170.4375 21.78125 169 20.894531 167.539062 20.046875 C 166.082031 19.195312 164.605469 18.378906 163.105469 17.597656 C 161.609375 16.8125 160.097656 16.066406 158.566406 15.351562 C 157.035156 14.640625 155.488281 13.960938 153.925781 13.320312 C 152.367188 12.675781 150.789062 12.070312 149.199219 11.5 C 147.609375 10.929688 146.007812 10.398438 144.394531 9.902344 C 142.78125 9.402344 141.15625 8.945312 139.519531 8.523438 C 137.886719 8.097656 136.242188 7.714844 134.589844 7.367188 C 132.9375 7.019531 131.277344 6.710938 129.609375 6.441406 C 127.941406 6.171875 126.269531 5.9375 124.59375 5.742188 C 122.914062 5.546875 121.234375 5.394531 119.550781 5.277344 C 117.863281 5.160156 116.179688 5.078125 114.488281 5.039062 C 112.800781 5 111.113281 5 109.425781 5.035156 C 107.738281 5.074219 106.050781 5.148438 104.363281 5.261719 C 102.679688 5.378906 101 5.53125 99.320312 5.722656 Z M 99.320312 5.722656 " fill-opacity="1" fill-rule="nonzero"/></svg>