<svg xmlns="http://www.w3.org/2000/svg" xmlns:xlink="http://www.w3.org/1999/xlink" width="300" zoomAndPan="magnify" viewBox="0 0 224.87999 225" height="300" preserveAspectRatio="xMidYMid meet" version="1.0"><defs><clipPath id="286d196e7d"><path d="M 0 65.695312 L 224.761719 65.695312 L 224.761719 159.398438 L 0 159.398438 Z M 0 65.695312 " clip-rule="nonzero"/></clipPath></defs><g clip-path="url(#286d196e7d)"><path fill="#d50000" d="M 0.113281 65.695312 L 224.765625 65.695312 L 224.765625 145.34375 L 112.441406 145.34375 L 112.441406 159.398438 L 60.957031 159.398438 L 60.957031 145.34375 L 0.113281 145.34375 Z M 0.113281 65.695312 " fill-opacity="1" fill-rule="nonzero"/></g><path fill="#ffffff" d="M 14.152344 131.285156 L 37.554688 131.285156 L 37.554688 93.808594 L 51.597656 93.808594 L 51.597656 131.285156 L 60.957031 131.285156 L 60.957031 79.75 L 14.152344 79.75 Z M 74.996094 79.75 L 74.996094 145.34375 L 98.398438 145.34375 L 98.398438 131.285156 L 121.800781 131.285156 L 121.800781 79.75 Z M 112.441406 117.230469 L 98.398438 117.230469 L 98.398438 93.808594 L 112.441406 93.808594 Z M 135.839844 79.75 L 135.839844 131.285156 L 159.242188 131.285156 L 159.242188 93.808594 L 173.285156 93.808594 L 173.285156 131.285156 L 187.324219 131.285156 L 187.324219 93.808594 L 201.367188 93.808594 L 201.367188 131.285156 L 210.726562 131.285156 L 210.726562 79.75 Z M 135.839844 79.75 " fill-opacity="1" fill-rule="nonzero"/></svg>