<svg xmlns="http://www.w3.org/2000/svg" xmlns:xlink="http://www.w3.org/1999/xlink" width="300" zoomAndPan="magnify" viewBox="0 0 224.87999 225" height="300" preserveAspectRatio="xMidYMid meet" version="1.0"><defs><clipPath id="878ab0e13e"><path d="M 0 13 L 224.761719 13 L 224.761719 211 L 0 211 Z M 0 13 " clip-rule="nonzero"/></clipPath></defs><path fill="#ffffff" d="M 112.441406 91.90625 C 101.328125 91.90625 92.324219 100.910156 92.324219 112.023438 C 92.324219 123.136719 101.328125 132.140625 112.441406 132.140625 C 123.554688 132.140625 132.558594 123.136719 132.558594 112.023438 C 132.558594 100.910156 123.554688 91.90625 112.441406 91.90625 Z M 112.441406 91.90625 " fill-opacity="1" fill-rule="nonzero"/><g clip-path="url(#878ab0e13e)"><path fill="#ffffff" d="M 42.296875 147.648438 C 44.273438 148.304688 46.25 148.96875 48.273438 149.539062 C 47.617188 152.171875 47.046875 154.769531 46.511719 157.449219 C 41.902344 181.828125 45.5 201.148438 57.007812 207.785156 C 68.871094 214.632812 88.808594 207.605469 108.222656 190.609375 C 109.761719 189.25 111.296875 187.84375 112.832031 186.34375 C 114.765625 188.238281 116.789062 190.035156 118.800781 191.789062 C 137.597656 207.953125 156.179688 214.492188 167.648438 207.867188 C 179.511719 201.019531 183.371094 180.246094 178.367188 154.945312 C 177.972656 153.015625 177.535156 151.039062 177.046875 149.015625 C 178.453125 148.621094 179.808594 148.179688 181.179688 147.742188 C 206.523438 139.355469 224.878906 125.777344 224.878906 111.851562 C 224.878906 98.546875 207.574219 85.636719 183.679688 77.417969 L 183.679688 77.410156 C 181.308594 76.621094 178.9375 75.871094 176.566406 75.171875 C 176.960938 73.550781 177.316406 71.917969 177.664062 70.296875 C 183.070312 44.117188 179.511719 23.089844 167.515625 16.148438 C 155.964844 9.515625 137.121094 16.410156 118.0625 33.015625 C 116.167969 34.636719 114.332031 36.351562 112.570312 38.066406 C 111.382812 36.921875 110.152344 35.777344 108.925781 34.683594 C 88.941406 16.933594 68.917969 9.46875 56.921875 16.457031 C 45.417969 23.136719 41.988281 42.945312 46.820312 67.703125 C 47.308594 70.167969 47.832031 72.574219 48.441406 75.039062 C 45.632812 75.824219 42.867188 76.707031 40.273438 77.632812 C 16.820312 85.757812 0 98.585938 0 111.851562 C 0 125.5625 17.914062 139.296875 42.296875 147.648438 Z M 102.03125 183.429688 C 94.785156 190.066406 86.390625 195.332031 77.253906 198.9375 C 72.382812 201.261719 66.761719 201.488281 61.75 199.511719 C 54.769531 195.472656 51.863281 179.964844 55.816406 159.097656 C 56.304688 156.640625 56.828125 154.179688 57.4375 151.761719 C 67.277344 153.867188 77.199219 155.320312 87.261719 156.0625 C 93.0625 164.277344 99.425781 172.140625 106.238281 179.515625 C 104.832031 180.871094 103.425781 182.195312 102.019531 183.421875 Z M 157.808594 100.957031 C 155.75 97.085938 153.640625 93.226562 151.4375 89.449219 C 149.28125 85.71875 147.042969 82.027344 144.71875 78.382812 C 151.792969 79.265625 158.558594 80.445312 164.882812 81.898438 C 162.859375 88.398438 160.488281 94.726562 157.808594 100.957031 Z M 157.894531 122.824219 C 160.703125 129.199219 163.167969 135.652344 165.316406 142.289062 C 158.503906 143.824219 151.617188 145.015625 144.671875 145.800781 C 147.042969 142.109375 149.28125 138.332031 151.484375 134.558594 C 153.722656 130.6875 155.832031 126.78125 157.894531 122.824219 Z M 152.816406 111.898438 C 149.875 117.960938 146.707031 123.929688 143.332031 129.816406 C 139.996094 135.652344 136.4375 141.320312 132.707031 146.945312 C 126.167969 147.429688 119.355469 147.648438 112.457031 147.648438 C 105.5625 147.648438 98.890625 147.429688 92.433594 147.027344 C 88.613281 141.453125 85.015625 135.738281 81.632812 129.898438 C 78.25 124.0625 75.128906 118.132812 72.1875 112.070312 L 72.167969 112.070312 C 75.0625 106.007812 78.230469 100.074219 81.566406 94.238281 C 84.902344 88.398438 88.507812 82.730469 92.285156 77.15625 C 98.871094 76.667969 105.589844 76.40625 112.449219 76.40625 C 119.308594 76.40625 126.0625 76.667969 132.613281 77.15625 C 136.34375 82.695312 139.902344 88.351562 143.285156 94.152344 C 146.667969 99.953125 149.828125 105.886719 152.816406 111.898438 Z M 73.386719 89.535156 C 71.230469 93.261719 69.121094 97.078125 67.144531 100.945312 C 64.382812 94.40625 62.046875 87.996094 60.117188 81.804688 C 66.441406 80.398438 73.160156 79.253906 80.140625 78.375 C 77.828125 82.019531 75.539062 85.75 73.386719 89.535156 Z M 67.15625 123.171875 C 69.179688 127.042969 71.238281 130.863281 73.433594 134.640625 C 75.671875 138.464844 77.957031 142.289062 80.375 146.015625 C 73.527344 145.265625 66.714844 144.171875 59.996094 142.71875 C 61.925781 136.394531 64.34375 129.851562 67.15625 123.171875 Z M 112.796875 172.75 C 108.316406 167.921875 103.839844 162.574219 99.492188 156.8125 C 103.707031 156.988281 108.054688 157.074219 112.449219 157.074219 C 116.976562 157.074219 121.40625 156.988281 125.800781 156.765625 C 121.761719 162.339844 117.414062 167.660156 112.796875 172.75 Z M 170.207031 185.941406 C 169.804688 191.292969 167.171875 196.296875 162.953125 199.679688 C 155.972656 203.71875 141.085938 198.449219 125.003906 184.660156 C 123.160156 183.074219 121.3125 181.359375 119.429688 179.609375 C 126.148438 172.1875 132.34375 164.324219 137.964844 156.070312 C 148.019531 155.238281 158.035156 153.699219 167.917969 151.460938 C 168.359375 153.257812 168.753906 155.058594 169.109375 156.820312 C 171.265625 166.3125 171.613281 176.1875 170.207031 185.941406 Z M 174.019531 84.222656 C 176.304688 84.878906 178.5 85.578125 180.605469 86.28125 C 201.070312 93.308594 215.433594 103.765625 215.433594 111.761719 C 215.433594 120.371094 200.105469 131.484375 178.1875 138.726562 C 176.960938 139.121094 175.734375 139.515625 174.460938 139.871094 C 171.386719 130.292969 167.609375 120.941406 163.261719 111.84375 C 167.480469 102.886719 171.039062 93.65625 174.019531 84.222656 Z M 124.246094 40.125 C 140.597656 25.902344 155.832031 20.328125 162.777344 24.320312 C 170.195312 28.582031 173.054688 45.796875 168.398438 68.414062 C 168.089844 69.902344 167.777344 71.355469 167.386719 72.808594 C 157.632812 70.617188 147.753906 69.03125 137.824219 68.152344 C 132.117188 59.972656 125.875 52.15625 119.113281 44.820312 C 120.824219 43.199219 122.492188 41.664062 124.246094 40.125 Z M 112.535156 51.546875 C 117.144531 56.550781 121.492188 61.816406 125.53125 67.261719 C 116.835938 66.867188 108.09375 66.867188 99.398438 67.261719 C 103.699219 61.601562 108.140625 56.335938 112.535156 51.546875 Z M 61.578125 24.628906 C 68.964844 20.328125 85.34375 26.472656 102.601562 41.757812 C 103.699219 42.722656 104.792969 43.78125 105.9375 44.828125 C 99.125 52.15625 92.847656 59.972656 87.09375 68.140625 C 77.171875 69.023438 67.332031 70.558594 57.578125 72.714844 C 57.007812 70.476562 56.527344 68.1875 56.042969 65.902344 C 51.910156 44.640625 54.636719 28.621094 61.578125 24.628906 Z M 43.355469 86.546875 C 45.855469 85.664062 48.40625 84.878906 50.953125 84.128906 C 53.941406 93.65625 57.542969 103.015625 61.710938 112.058594 C 57.496094 121.242188 53.847656 130.726562 50.824219 140.386719 L 50.8125 140.394531 C 48.96875 139.871094 47.167969 139.296875 45.371094 138.679688 C 36.019531 135.738281 25.382812 131.082031 17.699219 124.980469 C 13.269531 121.90625 10.277344 117.167969 9.445312 111.84375 C 9.445312 103.804688 23.320312 93.527344 43.355469 86.546875 Z M 43.355469 86.546875 " fill-opacity="1" fill-rule="nonzero"/></g></svg>