<svg xmlns="http://www.w3.org/2000/svg" xmlns:xlink="http://www.w3.org/1999/xlink" width="300" zoomAndPan="magnify" viewBox="0 0 224.87999 225" height="300" preserveAspectRatio="xMidYMid meet" version="1.0"><defs><clipPath id="17afdfa57a"><path d="M 1.765625 20 L 132 20 L 132 162 L 1.765625 162 Z M 1.765625 20 " clip-rule="nonzero"/></clipPath><clipPath id="a69bb36074"><path d="M 1.765625 1.828125 L 132 1.828125 L 132 40 L 1.765625 40 Z M 1.765625 1.828125 " clip-rule="nonzero"/></clipPath><clipPath id="9cc912149b"><path d="M 1.765625 51 L 132 51 L 132 86 L 1.765625 86 Z M 1.765625 51 " clip-rule="nonzero"/></clipPath><clipPath id="9910df5198"><path d="M 1.765625 97 L 100 97 L 100 132 L 1.765625 132 Z M 1.765625 97 " clip-rule="nonzero"/></clipPath><clipPath id="9372d11939"><path d="M 85 85 L 222.898438 85 L 222.898438 222.957031 L 85 222.957031 Z M 85 85 " clip-rule="nonzero"/></clipPath></defs><g clip-path="url(#17afdfa57a)"><path fill="#4184a9" d="M 1.765625 20.890625 L 1.765625 142.894531 C 1.765625 153.421875 30.777344 161.957031 66.582031 161.957031 C 73.328125 161.957031 79.851562 161.644531 85.988281 161.121094 L 131.394531 89.636719 L 131.394531 20.890625 L 1.765625 20.890625 " fill-opacity="1" fill-rule="nonzero"/></g><g clip-path="url(#a69bb36074)"><path fill="#35718a" d="M 131.394531 20.890625 C 131.394531 31.417969 102.382812 39.953125 66.582031 39.953125 C 30.792969 39.953125 1.765625 31.417969 1.765625 20.890625 C 1.765625 10.359375 30.792969 1.828125 66.582031 1.828125 C 102.382812 1.828125 131.394531 10.359375 131.394531 20.890625 " fill-opacity="1" fill-rule="nonzero"/></g><g clip-path="url(#9cc912149b)"><path fill="#6de08e" d="M 1.765625 66.640625 C 1.765625 77.171875 30.792969 85.703125 66.582031 85.703125 C 102.382812 85.703125 131.394531 77.171875 131.394531 66.640625 L 131.394531 51.390625 C 131.394531 61.917969 102.382812 70.453125 66.582031 70.453125 C 30.792969 70.453125 1.765625 61.917969 1.765625 51.390625 L 1.765625 66.640625 " fill-opacity="1" fill-rule="nonzero"/></g><g clip-path="url(#9910df5198)"><path fill="#6de08e" d="M 90.039062 130.191406 C 82.738281 130.992188 74.847656 131.457031 66.582031 131.457031 C 30.777344 131.457031 1.765625 122.921875 1.765625 112.390625 L 1.765625 97.140625 C 1.765625 107.671875 30.777344 116.203125 66.582031 116.203125 C 78.390625 116.203125 89.5 115.296875 99.03125 113.660156 L 90.039062 130.191406 " fill-opacity="1" fill-rule="nonzero"/></g><g clip-path="url(#9372d11939)"><path fill="#35718a" d="M 222.898438 154.332031 C 222.898438 192.234375 192.175781 222.957031 154.269531 222.957031 C 116.367188 222.957031 85.644531 192.234375 85.644531 154.332031 C 85.644531 116.429688 116.367188 85.703125 154.269531 85.703125 C 192.175781 85.703125 222.898438 116.429688 222.898438 154.332031 " fill-opacity="1" fill-rule="nonzero"/></g><path fill="#ffffff" d="M 119.957031 135.269531 C 124.15625 135.269531 127.582031 138.695312 127.582031 142.894531 C 127.582031 144.992188 129.296875 146.707031 131.394531 146.707031 C 133.496094 146.707031 135.207031 144.992188 135.207031 142.894531 C 135.207031 134.480469 128.371094 127.644531 119.957031 127.644531 C 111.542969 127.644531 104.707031 134.480469 104.707031 142.894531 C 104.707031 151.308594 111.542969 158.144531 119.957031 158.144531 C 124.15625 158.144531 127.582031 161.570312 127.582031 165.769531 C 127.582031 169.96875 124.15625 173.394531 119.957031 173.394531 C 115.757812 173.394531 112.332031 169.96875 112.332031 165.769531 C 112.332031 163.667969 110.621094 161.957031 108.519531 161.957031 C 106.417969 161.957031 104.707031 163.667969 104.707031 165.769531 C 104.707031 174.183594 111.542969 181.019531 119.957031 181.019531 C 128.371094 181.019531 135.207031 174.183594 135.207031 165.769531 C 135.207031 157.355469 128.371094 150.519531 119.957031 150.519531 C 115.757812 150.519531 112.332031 147.09375 112.332031 142.894531 C 112.332031 138.695312 115.757812 135.269531 119.957031 135.269531 " fill-opacity="1" fill-rule="nonzero"/><path fill="#ffffff" d="M 165.070312 163.652344 C 163.90625 161.898438 161.539062 161.433594 159.78125 162.597656 C 158.023438 163.757812 157.546875 166.125 158.722656 167.882812 L 161.746094 172.410156 C 160.644531 173.023438 159.410156 173.394531 158.082031 173.394531 C 153.882812 173.394531 150.457031 169.96875 150.457031 165.769531 L 150.457031 142.894531 C 150.457031 138.695312 153.882812 135.269531 158.082031 135.269531 C 162.285156 135.269531 165.710938 138.695312 165.710938 142.894531 L 165.710938 164.621094 Z M 158.082031 127.644531 C 149.667969 127.644531 142.832031 134.480469 142.832031 142.894531 L 142.832031 165.769531 C 142.832031 174.183594 149.667969 181.019531 158.082031 181.019531 C 160.988281 181.019531 163.667969 180.171875 165.976562 178.753906 L 166.347656 179.320312 C 167.078125 180.421875 168.285156 181.019531 169.523438 181.019531 C 170.25 181.019531 170.980469 180.8125 171.636719 180.378906 C 173.394531 179.21875 173.871094 176.847656 172.695312 175.09375 L 171.367188 173.113281 C 172.574219 170.921875 173.335938 168.449219 173.335938 165.769531 L 173.335938 142.894531 C 173.335938 134.480469 166.5 127.644531 158.082031 127.644531 " fill-opacity="1" fill-rule="nonzero"/><path fill="#ffffff" d="M 200.023438 173.394531 L 188.585938 173.394531 L 188.585938 131.457031 C 188.585938 129.355469 186.871094 127.644531 184.773438 127.644531 C 182.671875 127.644531 180.960938 129.355469 180.960938 131.457031 L 180.960938 177.207031 C 180.960938 179.308594 182.671875 181.019531 184.773438 181.019531 L 200.023438 181.019531 C 202.121094 181.019531 203.835938 179.308594 203.835938 177.207031 C 203.835938 175.105469 202.121094 173.394531 200.023438 173.394531 " fill-opacity="1" fill-rule="nonzero"/></svg>