<svg xmlns="http://www.w3.org/2000/svg" xmlns:xlink="http://www.w3.org/1999/xlink" width="300" zoomAndPan="magnify" viewBox="0 0 224.87999 225" height="300" preserveAspectRatio="xMidYMid meet" version="1.0"><defs><clipPath id="0effbdf655"><path d="M 145 55 L 224.761719 55 L 224.761719 170 L 145 170 Z M 145 55 " clip-rule="nonzero"/></clipPath><clipPath id="3d888f7171"><path d="M 73 25.21875 L 151 25.21875 L 151 199.875 L 73 199.875 Z M 73 25.21875 " clip-rule="nonzero"/></clipPath></defs><path fill="#ffffff" d="M 70.953125 167.542969 C 69.710938 167.542969 68.484375 167.125 67.507812 166.347656 L 4.625 116.875 C 3.273438 115.8125 2.5 114.21875 2.5 112.5 C 2.5 110.78125 3.273438 109.1875 4.621094 108.117188 L 67.507812 58.652344 C 68.484375 57.875 69.710938 57.457031 70.953125 57.457031 C 72.671875 57.457031 74.273438 58.222656 75.328125 59.582031 C 76.246094 60.746094 76.664062 62.207031 76.484375 63.679688 C 76.3125 65.160156 75.5625 66.476562 74.398438 67.398438 L 17.085938 112.5 L 74.398438 157.59375 C 75.5625 158.523438 76.3125 159.839844 76.484375 161.3125 C 76.664062 162.792969 76.246094 164.242188 75.328125 165.417969 C 74.273438 166.765625 72.671875 167.542969 70.953125 167.542969 " fill-opacity="1" fill-rule="nonzero"/><path fill="#ffffff" d="M 70.953125 55.082031 C 69.179688 55.082031 67.441406 55.679688 66.046875 56.78125 L 3.15625 106.257812 C 1.226562 107.785156 0.125 110.050781 0.125 112.5 C 0.125 114.949219 1.234375 117.222656 3.15625 118.742188 L 66.046875 168.21875 C 67.433594 169.308594 69.179688 169.917969 70.953125 169.917969 C 73.410156 169.917969 75.6875 168.804688 77.195312 166.878906 C 78.515625 165.21875 79.09375 163.140625 78.847656 161.035156 C 78.589844 158.929688 77.535156 157.042969 75.867188 155.734375 L 20.917969 112.5 L 75.867188 69.265625 C 77.535156 67.949219 78.589844 66.070312 78.847656 63.964844 C 79.09375 61.859375 78.515625 59.78125 77.195312 58.109375 C 75.6875 56.183594 73.402344 55.082031 70.953125 55.082031 Z M 70.953125 59.828125 C 71.902344 59.828125 72.839844 60.246094 73.46875 61.042969 C 74.566406 62.4375 74.320312 64.449219 72.9375 65.539062 L 13.242188 112.5 L 72.9375 159.460938 C 74.320312 160.550781 74.566406 162.5625 73.46875 163.949219 C 72.839844 164.753906 71.902344 165.171875 70.953125 165.171875 C 70.261719 165.171875 69.566406 164.953125 68.980469 164.488281 L 6.089844 115.015625 C 5.320312 114.40625 4.871094 113.476562 4.871094 112.5 C 4.871094 111.511719 5.320312 110.59375 6.089844 109.984375 L 68.980469 60.511719 C 69.558594 60.046875 70.261719 59.828125 70.953125 59.828125 " fill-opacity="1" fill-rule="nonzero"/><path fill="#ffffff" d="M 153.925781 167.542969 C 152.210938 167.542969 150.617188 166.765625 149.542969 165.417969 C 147.648438 163.007812 148.0625 159.5 150.484375 157.59375 L 207.804688 112.5 L 150.484375 67.398438 C 148.0625 65.5 147.648438 61.992188 149.542969 59.582031 C 150.617188 58.222656 152.210938 57.457031 153.925781 57.457031 C 155.171875 57.457031 156.394531 57.875 157.371094 58.652344 L 220.261719 108.117188 C 221.609375 109.1875 222.375 110.78125 222.375 112.5 C 222.375 114.21875 221.609375 115.8125 220.25 116.875 L 157.371094 166.347656 C 156.394531 167.125 155.171875 167.542969 153.925781 167.542969 " fill-opacity="1" fill-rule="nonzero"/><g clip-path="url(#0effbdf655)"><path fill="#ffffff" d="M 153.925781 55.082031 C 151.480469 55.082031 149.203125 56.183594 147.683594 58.109375 C 144.972656 61.554688 145.570312 66.554688 149.011719 69.265625 L 203.960938 112.5 L 149.011719 155.734375 C 145.570312 158.4375 144.972656 163.445312 147.683594 166.878906 C 149.203125 168.804688 151.480469 169.917969 153.925781 169.917969 C 155.703125 169.917969 157.4375 169.308594 158.832031 168.21875 L 221.722656 118.742188 C 223.648438 117.226562 224.75 114.949219 224.75 112.5 C 224.75 110.050781 223.648438 107.785156 221.730469 106.257812 L 158.839844 56.78125 C 157.445312 55.683594 155.703125 55.082031 153.925781 55.082031 Z M 153.925781 59.828125 C 154.621094 59.828125 155.320312 60.046875 155.902344 60.511719 L 218.789062 109.984375 C 219.558594 110.59375 220.003906 111.511719 220.003906 112.5 C 220.003906 113.476562 219.558594 114.40625 218.789062 115.015625 L 155.902344 164.488281 C 155.320312 164.953125 154.621094 165.171875 153.925781 165.171875 C 152.976562 165.171875 152.039062 164.753906 151.414062 163.949219 C 150.320312 162.5625 150.558594 160.550781 151.945312 159.460938 L 211.636719 112.5 L 151.945312 65.539062 C 150.558594 64.449219 150.320312 62.4375 151.414062 61.042969 C 152.039062 60.246094 152.988281 59.828125 153.925781 59.828125 " fill-opacity="1" fill-rule="nonzero"/></g><path fill="#ffffff" d="M 81.1875 197.398438 C 80.496094 197.398438 79.824219 197.265625 79.179688 197.019531 C 77.792969 196.480469 76.691406 195.4375 76.09375 194.078125 C 75.488281 192.714844 75.460938 191.207031 75.992188 189.820312 L 137.410156 31.15625 C 138.234375 29.03125 140.324219 27.601562 142.597656 27.601562 C 143.292969 27.601562 143.976562 27.734375 144.621094 27.980469 C 147.476562 29.089844 148.910156 32.324219 147.796875 35.1875 L 86.386719 193.84375 C 85.5625 195.96875 83.464844 197.398438 81.1875 197.398438 " fill-opacity="1" fill-rule="nonzero"/><g clip-path="url(#3d888f7171)"><path fill="#ffffff" d="M 142.597656 25.226562 C 139.34375 25.226562 136.367188 27.277344 135.199219 30.304688 L 73.78125 188.957031 C 73.019531 190.941406 73.070312 193.09375 73.921875 195.039062 C 74.785156 196.972656 76.339844 198.472656 78.324219 199.230469 C 79.246094 199.59375 80.203125 199.773438 81.1875 199.773438 C 84.445312 199.773438 87.421875 197.730469 88.597656 194.695312 L 150.007812 36.042969 C 151.59375 31.953125 149.554688 27.34375 145.464844 25.769531 C 144.554688 25.410156 143.585938 25.226562 142.597656 25.226562 Z M 142.597656 29.972656 C 142.988281 29.972656 143.378906 30.046875 143.757812 30.191406 C 145.40625 30.824219 146.222656 32.675781 145.589844 34.324219 L 84.167969 192.980469 C 83.683594 194.25 82.46875 195.027344 81.1875 195.027344 C 80.800781 195.027344 80.410156 194.960938 80.03125 194.808594 C 78.382812 194.175781 77.566406 192.316406 78.210938 190.675781 L 139.621094 32.019531 C 140.113281 30.75 141.320312 29.972656 142.597656 29.972656 " fill-opacity="1" fill-rule="nonzero"/></g></svg>