<svg xmlns="http://www.w3.org/2000/svg" xmlns:xlink="http://www.w3.org/1999/xlink" width="300" zoomAndPan="magnify" viewBox="0 0 224.87999 225" height="300" preserveAspectRatio="xMidYMid meet" version="1.0"><defs><clipPath id="8276561c4c"><path d="M 0 0.0585938 L 224.761719 0.0585938 L 224.761719 224.9375 L 0 224.9375 Z M 0 0.0585938 " clip-rule="nonzero"/></clipPath></defs><path fill="#004279" d="M 135.082031 123.980469 L 183.453125 88.828125 L 183.453125 156.292969 C 183.445312 156.757812 183.371094 157.210938 183.230469 157.652344 C 183.113281 157.558594 183.003906 157.453125 182.875 157.359375 Z M 114.523438 138.894531 C 114.371094 139.007812 114.210938 139.105469 114.039062 139.191406 C 113.535156 139.441406 113.003906 139.570312 112.441406 139.570312 C 111.878906 139.570312 111.34375 139.441406 110.84375 139.191406 C 110.671875 139.105469 110.507812 139.007812 110.355469 138.894531 L 95.871094 128.394531 L 49.152344 161.027344 L 175.726562 161.027344 L 129.011719 128.394531 Z M 41.425781 88.828125 L 41.425781 156.292969 C 41.433594 156.757812 41.507812 157.210938 41.648438 157.652344 C 41.769531 157.558594 41.875 157.453125 42.003906 157.359375 L 89.796875 123.980469 Z M 178.71875 63.972656 L 46.160156 63.972656 C 45.847656 63.972656 45.539062 64.003906 45.234375 64.0625 C 44.929688 64.125 44.636719 64.214844 44.347656 64.332031 C 44.0625 64.453125 43.789062 64.597656 43.53125 64.769531 C 43.269531 64.945312 43.03125 65.140625 42.8125 65.359375 C 42.59375 65.578125 42.394531 65.820312 42.222656 66.078125 C 42.050781 66.335938 41.90625 66.609375 41.785156 66.894531 C 41.667969 67.183594 41.578125 67.480469 41.515625 67.785156 C 41.457031 68.089844 41.425781 68.398438 41.425781 68.707031 L 41.425781 80.105469 L 98 121.164062 L 112.441406 131.636719 L 126.867188 121.164062 L 183.453125 80.105469 L 183.453125 68.707031 C 183.453125 68.398438 183.425781 68.089844 183.363281 67.785156 C 183.304688 67.480469 183.214844 67.183594 183.09375 66.894531 C 182.976562 66.609375 182.828125 66.335938 182.65625 66.078125 C 182.484375 65.820312 182.289062 65.578125 182.066406 65.359375 C 181.847656 65.140625 181.609375 64.945312 181.351562 64.769531 C 181.09375 64.597656 180.820312 64.453125 180.53125 64.332031 C 180.246094 64.214844 179.949219 64.125 179.644531 64.0625 C 179.339844 64.003906 179.03125 63.972656 178.71875 63.972656 Z M 178.71875 63.972656 " fill-opacity="1" fill-rule="nonzero"/><g clip-path="url(#8276561c4c)"><path fill="#004279" d="M 112.441406 224.941406 C 110.601562 224.941406 108.761719 224.894531 106.921875 224.804688 C 105.085938 224.714844 103.25 224.578125 101.417969 224.398438 C 99.585938 224.21875 97.761719 223.992188 95.941406 223.722656 C 94.121094 223.453125 92.308594 223.136719 90.503906 222.78125 C 88.699219 222.421875 86.90625 222.015625 85.121094 221.570312 C 83.335938 221.125 81.5625 220.632812 79.800781 220.097656 C 78.039062 219.5625 76.292969 218.988281 74.558594 218.367188 C 72.828125 217.746094 71.109375 217.085938 69.410156 216.382812 C 67.710938 215.675781 66.027344 214.929688 64.367188 214.144531 C 62.703125 213.359375 61.058594 212.53125 59.4375 211.664062 C 57.8125 210.796875 56.210938 209.890625 54.632812 208.941406 C 53.054688 207.996094 51.5 207.011719 49.972656 205.992188 C 48.441406 204.96875 46.9375 203.910156 45.460938 202.8125 C 43.980469 201.714844 42.53125 200.585938 41.109375 199.417969 C 39.6875 198.25 38.292969 197.046875 36.929688 195.8125 C 35.566406 194.578125 34.234375 193.308594 32.933594 192.007812 C 31.632812 190.707031 30.363281 189.375 29.128906 188.011719 C 27.890625 186.648438 26.691406 185.253906 25.523438 183.832031 C 24.355469 182.410156 23.222656 180.957031 22.128906 179.480469 C 21.03125 178.003906 19.972656 176.5 18.949219 174.96875 C 17.925781 173.4375 16.941406 171.882812 15.996094 170.304688 C 15.050781 168.726562 14.144531 167.125 13.277344 165.503906 C 12.410156 163.882812 11.582031 162.238281 10.796875 160.574219 C 10.007812 158.910156 9.261719 157.230469 8.558594 155.527344 C 7.855469 153.828125 7.191406 152.113281 6.574219 150.378906 C 5.953125 148.648438 5.375 146.902344 4.839844 145.140625 C 4.308594 143.378906 3.816406 141.605469 3.371094 139.820312 C 2.921875 138.035156 2.519531 136.242188 2.160156 134.4375 C 1.800781 132.632812 1.488281 130.820312 1.21875 129 C 0.945312 127.179688 0.722656 125.351562 0.542969 123.519531 C 0.359375 121.691406 0.226562 119.855469 0.136719 118.015625 C 0.046875 116.179688 0 114.339844 0 112.5 C 0 110.660156 0.046875 108.820312 0.136719 106.984375 C 0.226562 105.144531 0.359375 103.308594 0.542969 101.480469 C 0.722656 99.648438 0.945312 97.820312 1.21875 96 C 1.488281 94.179688 1.800781 92.367188 2.160156 90.5625 C 2.519531 88.757812 2.921875 86.964844 3.371094 85.179688 C 3.816406 83.394531 4.308594 81.621094 4.839844 79.859375 C 5.375 78.097656 5.953125 76.351562 6.574219 74.621094 C 7.191406 72.886719 7.855469 71.171875 8.558594 69.472656 C 9.261719 67.769531 10.007812 66.089844 10.796875 64.425781 C 11.582031 62.761719 12.410156 61.117188 13.277344 59.496094 C 14.144531 57.875 15.050781 56.273438 15.996094 54.695312 C 16.941406 53.117188 17.925781 51.5625 18.949219 50.03125 C 19.972656 48.5 21.03125 46.996094 22.128906 45.519531 C 23.222656 44.042969 24.355469 42.589844 25.523438 41.167969 C 26.691406 39.746094 27.890625 38.351562 29.128906 36.988281 C 30.363281 35.625 31.632812 34.292969 32.933594 32.992188 C 34.234375 31.691406 35.566406 30.421875 36.929688 29.1875 C 38.292969 27.953125 39.6875 26.75 41.109375 25.582031 C 42.53125 24.414062 43.980469 23.285156 45.460938 22.1875 C 46.9375 21.089844 48.441406 20.03125 49.972656 19.007812 C 51.5 17.988281 53.054688 17.003906 54.632812 16.058594 C 56.210938 15.109375 57.8125 14.203125 59.4375 13.335938 C 61.058594 12.46875 62.703125 11.640625 64.367188 10.855469 C 66.027344 10.070312 67.710938 9.324219 69.410156 8.617188 C 71.109375 7.914062 72.828125 7.253906 74.558594 6.632812 C 76.292969 6.011719 78.039062 5.4375 79.800781 4.902344 C 81.5625 4.367188 83.335938 3.875 85.121094 3.429688 C 86.90625 2.984375 88.699219 2.578125 90.503906 2.21875 C 92.308594 1.863281 94.121094 1.546875 95.941406 1.277344 C 97.761719 1.007812 99.585938 0.78125 101.417969 0.601562 C 103.25 0.421875 105.085938 0.285156 106.921875 0.195312 C 108.761719 0.105469 110.601562 0.0585938 112.441406 0.0585938 C 114.28125 0.0585938 116.121094 0.105469 117.957031 0.195312 C 119.796875 0.285156 121.628906 0.421875 123.460938 0.601562 C 125.292969 0.78125 127.117188 1.007812 128.9375 1.277344 C 130.757812 1.546875 132.570312 1.863281 134.375 2.21875 C 136.179688 2.578125 137.976562 2.984375 139.761719 3.429688 C 141.546875 3.875 143.320312 4.367188 145.078125 4.902344 C 146.839844 5.4375 148.585938 6.011719 150.320312 6.632812 C 152.050781 7.253906 153.769531 7.914062 155.46875 8.617188 C 157.167969 9.324219 158.851562 10.070312 160.515625 10.855469 C 162.179688 11.640625 163.820312 12.46875 165.445312 13.335938 C 167.066406 14.203125 168.667969 15.109375 170.246094 16.058594 C 171.824219 17.003906 173.378906 17.988281 174.910156 19.007812 C 176.4375 20.03125 177.941406 21.089844 179.421875 22.1875 C 180.898438 23.285156 182.347656 24.414062 183.769531 25.582031 C 185.195312 26.75 186.585938 27.953125 187.949219 29.1875 C 189.3125 30.421875 190.644531 31.691406 191.945312 32.992188 C 193.25 34.292969 194.515625 35.625 195.753906 36.988281 C 196.988281 38.351562 198.191406 39.746094 199.355469 41.167969 C 200.523438 42.589844 201.65625 44.042969 202.753906 45.519531 C 203.847656 46.996094 204.90625 48.5 205.929688 50.03125 C 206.953125 51.5625 207.9375 53.117188 208.882812 54.695312 C 209.828125 56.273438 210.734375 57.875 211.601562 59.496094 C 212.46875 61.117188 213.296875 62.761719 214.085938 64.425781 C 214.871094 66.089844 215.617188 67.769531 216.320312 69.472656 C 217.023438 71.171875 217.6875 72.886719 218.308594 74.621094 C 218.925781 76.351562 219.503906 78.097656 220.039062 79.859375 C 220.574219 81.621094 221.0625 83.394531 221.511719 85.179688 C 221.957031 86.964844 222.359375 88.757812 222.71875 90.5625 C 223.078125 92.367188 223.394531 94.179688 223.664062 96 C 223.933594 97.820312 224.15625 99.648438 224.339844 101.480469 C 224.519531 103.308594 224.652344 105.144531 224.746094 106.984375 C 224.835938 108.820312 224.878906 110.660156 224.878906 112.5 C 224.878906 114.339844 224.832031 116.179688 224.738281 118.015625 C 224.644531 119.851562 224.507812 121.6875 224.328125 123.515625 C 224.144531 125.347656 223.917969 127.171875 223.644531 128.992188 C 223.375 130.8125 223.058594 132.621094 222.699219 134.425781 C 222.335938 136.230469 221.933594 138.023438 221.484375 139.808594 C 221.035156 141.59375 220.542969 143.363281 220.007812 145.125 C 219.472656 146.886719 218.894531 148.632812 218.273438 150.363281 C 217.652344 152.09375 216.992188 153.808594 216.285156 155.507812 C 215.582031 157.207031 214.835938 158.890625 214.046875 160.550781 C 213.261719 162.214844 212.433594 163.855469 211.566406 165.476562 C 210.695312 167.101562 209.789062 168.699219 208.84375 170.277344 C 207.898438 171.855469 206.914062 173.410156 205.890625 174.9375 C 204.867188 176.46875 203.808594 177.96875 202.710938 179.449219 C 201.617188 180.925781 200.484375 182.375 199.316406 183.796875 C 198.148438 185.21875 196.949219 186.609375 195.714844 187.972656 C 194.476562 189.335938 193.210938 190.667969 191.910156 191.96875 C 190.609375 193.269531 189.277344 194.539062 187.914062 195.773438 C 186.550781 197.007812 185.15625 198.210938 183.734375 199.378906 C 182.3125 200.542969 180.863281 201.675781 179.386719 202.773438 C 177.910156 203.867188 176.40625 204.929688 174.878906 205.949219 C 173.347656 206.972656 171.792969 207.957031 170.21875 208.902344 C 168.640625 209.851562 167.039062 210.757812 165.417969 211.625 C 163.796875 212.492188 162.152344 213.320312 160.492188 214.109375 C 158.828125 214.894531 157.148438 215.640625 155.449219 216.347656 C 153.75 217.050781 152.035156 217.714844 150.300781 218.335938 C 148.570312 218.957031 146.824219 219.535156 145.066406 220.070312 C 143.304688 220.605469 141.53125 221.097656 139.75 221.542969 C 137.964844 221.992188 136.171875 222.398438 134.367188 222.757812 C 132.5625 223.117188 130.75 223.433594 128.933594 223.707031 C 127.113281 223.976562 125.289062 224.203125 123.457031 224.386719 C 121.625 224.570312 119.792969 224.707031 117.957031 224.796875 C 116.117188 224.890625 114.28125 224.9375 112.441406 224.941406 Z M 112.441406 7.160156 C 110.714844 7.160156 108.992188 7.203125 107.269531 7.289062 C 105.550781 7.371094 103.832031 7.5 102.113281 7.667969 C 100.398438 7.835938 98.6875 8.046875 96.984375 8.300781 C 95.277344 8.554688 93.582031 8.847656 91.890625 9.183594 C 90.199219 9.523438 88.515625 9.898438 86.84375 10.316406 C 85.171875 10.738281 83.511719 11.195312 81.863281 11.699219 C 80.210938 12.199219 78.574219 12.738281 76.953125 13.320312 C 75.328125 13.898438 73.722656 14.519531 72.128906 15.179688 C 70.535156 15.839844 68.960938 16.539062 67.402344 17.273438 C 65.84375 18.011719 64.304688 18.785156 62.785156 19.601562 C 61.261719 20.414062 59.765625 21.261719 58.285156 22.148438 C 56.804688 23.035156 55.351562 23.957031 53.917969 24.914062 C 52.484375 25.871094 51.074219 26.863281 49.691406 27.890625 C 48.304688 28.917969 46.945312 29.980469 45.613281 31.070312 C 44.28125 32.164062 42.976562 33.292969 41.699219 34.449219 C 40.421875 35.605469 39.171875 36.796875 37.953125 38.015625 C 36.734375 39.234375 35.546875 40.480469 34.390625 41.757812 C 33.230469 43.035156 32.105469 44.339844 31.011719 45.675781 C 29.917969 47.007812 28.859375 48.367188 27.832031 49.75 C 26.804688 51.132812 25.8125 52.542969 24.855469 53.976562 C 23.894531 55.410156 22.972656 56.867188 22.089844 58.34375 C 21.203125 59.824219 20.351562 61.324219 19.539062 62.84375 C 18.726562 64.363281 17.953125 65.902344 17.214844 67.460938 C 16.476562 69.019531 15.78125 70.597656 15.121094 72.1875 C 14.460938 73.78125 13.839844 75.390625 13.257812 77.011719 C 12.679688 78.636719 12.136719 80.273438 11.636719 81.921875 C 11.136719 83.570312 10.675781 85.234375 10.257812 86.90625 C 9.839844 88.578125 9.460938 90.257812 9.125 91.949219 C 8.789062 93.640625 8.496094 95.339844 8.242188 97.042969 C 7.988281 98.75 7.777344 100.460938 7.609375 102.175781 C 7.441406 103.890625 7.3125 105.609375 7.226562 107.332031 C 7.144531 109.054688 7.101562 110.777344 7.101562 112.5 C 7.101562 114.222656 7.144531 115.945312 7.226562 117.667969 C 7.3125 119.390625 7.441406 121.109375 7.609375 122.824219 C 7.777344 124.539062 7.988281 126.25 8.242188 127.957031 C 8.496094 129.660156 8.789062 131.359375 9.125 133.050781 C 9.460938 134.742188 9.839844 136.421875 10.257812 138.09375 C 10.675781 139.765625 11.136719 141.429688 11.636719 143.078125 C 12.136719 144.726562 12.679688 146.363281 13.257812 147.988281 C 13.839844 149.609375 14.460938 151.21875 15.121094 152.8125 C 15.78125 154.402344 16.476562 155.980469 17.214844 157.539062 C 17.953125 159.097656 18.726562 160.636719 19.539062 162.15625 C 20.351562 163.675781 21.203125 165.175781 22.089844 166.65625 C 22.972656 168.132812 23.894531 169.589844 24.855469 171.023438 C 25.8125 172.457031 26.804688 173.867188 27.832031 175.25 C 28.859375 176.636719 29.917969 177.992188 31.011719 179.324219 C 32.105469 180.660156 33.230469 181.964844 34.390625 183.242188 C 35.546875 184.519531 36.734375 185.765625 37.953125 186.984375 C 39.171875 188.203125 40.421875 189.394531 41.699219 190.550781 C 42.976562 191.707031 44.28125 192.835938 45.613281 193.929688 C 46.945312 195.019531 48.304688 196.082031 49.691406 197.109375 C 51.074219 198.136719 52.484375 199.128906 53.917969 200.085938 C 55.351562 201.042969 56.804688 201.964844 58.285156 202.851562 C 59.765625 203.738281 61.261719 204.585938 62.785156 205.398438 C 64.304688 206.214844 65.84375 206.988281 67.402344 207.726562 C 68.960938 208.460938 70.535156 209.160156 72.128906 209.820312 C 73.722656 210.480469 75.328125 211.101562 76.953125 211.679688 C 78.574219 212.261719 80.210938 212.800781 81.863281 213.300781 C 83.511719 213.804688 85.171875 214.261719 86.84375 214.679688 C 88.515625 215.101562 90.199219 215.476562 91.890625 215.816406 C 93.582031 216.152344 95.277344 216.445312 96.984375 216.699219 C 98.6875 216.953125 100.398438 217.164062 102.113281 217.332031 C 103.832031 217.5 105.550781 217.628906 107.269531 217.710938 C 108.992188 217.796875 110.714844 217.839844 112.441406 217.839844 C 114.164062 217.839844 115.886719 217.796875 117.609375 217.710938 C 119.332031 217.628906 121.050781 217.5 122.765625 217.332031 C 124.480469 217.164062 126.191406 216.953125 127.894531 216.699219 C 129.601562 216.445312 131.300781 216.152344 132.992188 215.816406 C 134.679688 215.476562 136.363281 215.101562 138.035156 214.683594 C 139.707031 214.261719 141.367188 213.804688 143.019531 213.300781 C 144.667969 212.800781 146.304688 212.261719 147.925781 211.679688 C 149.550781 211.101562 151.160156 210.480469 152.75 209.820312 C 154.34375 209.160156 155.917969 208.460938 157.476562 207.726562 C 159.035156 206.988281 160.574219 206.214844 162.097656 205.398438 C 163.617188 204.585938 165.117188 203.738281 166.59375 202.851562 C 168.074219 201.964844 169.53125 201.042969 170.964844 200.085938 C 172.394531 199.128906 173.804688 198.136719 175.191406 197.109375 C 176.574219 196.082031 177.933594 195.019531 179.265625 193.929688 C 180.597656 192.835938 181.902344 191.707031 183.179688 190.550781 C 184.457031 189.394531 185.707031 188.203125 186.925781 186.984375 C 188.144531 185.765625 189.332031 184.519531 190.492188 183.242188 C 191.648438 181.964844 192.773438 180.660156 193.867188 179.324219 C 194.960938 177.992188 196.023438 176.636719 197.046875 175.25 C 198.074219 173.867188 199.066406 172.457031 200.027344 171.023438 C 200.984375 169.589844 201.90625 168.132812 202.792969 166.65625 C 203.679688 165.175781 204.527344 163.675781 205.339844 162.15625 C 206.152344 160.636719 206.929688 159.097656 207.664062 157.539062 C 208.402344 155.980469 209.101562 154.402344 209.761719 152.8125 C 210.417969 151.21875 211.039062 149.609375 211.621094 147.988281 C 212.203125 146.363281 212.742188 144.726562 213.242188 143.078125 C 213.742188 141.429688 214.203125 139.765625 214.621094 138.09375 C 215.039062 136.421875 215.417969 134.742188 215.753906 133.050781 C 216.089844 131.359375 216.386719 129.660156 216.636719 127.957031 C 216.890625 126.25 217.101562 124.539062 217.269531 122.824219 C 217.441406 121.109375 217.566406 119.390625 217.652344 117.667969 C 217.734375 115.945312 217.777344 114.222656 217.777344 112.5 C 217.777344 110.777344 217.730469 109.054688 217.644531 107.332031 C 217.558594 105.613281 217.429688 103.894531 217.257812 102.179688 C 217.089844 100.464844 216.875 98.753906 216.621094 97.050781 C 216.367188 95.34375 216.070312 93.648438 215.734375 91.957031 C 215.394531 90.269531 215.015625 88.589844 214.597656 86.917969 C 214.175781 85.246094 213.714844 83.585938 213.214844 81.9375 C 212.710938 80.289062 212.171875 78.652344 211.589844 77.03125 C 211.007812 75.40625 210.386719 73.800781 209.726562 72.207031 C 209.066406 70.617188 208.367188 69.042969 207.628906 67.484375 C 206.890625 65.925781 206.113281 64.390625 205.300781 62.871094 C 204.488281 61.351562 203.640625 59.851562 202.753906 58.375 C 201.867188 56.894531 200.945312 55.441406 199.984375 54.007812 C 199.027344 52.574219 198.035156 51.167969 197.007812 49.78125 C 195.980469 48.398438 194.921875 47.039062 193.828125 45.707031 C 192.734375 44.375 191.609375 43.074219 190.453125 41.796875 C 189.292969 40.519531 188.105469 39.269531 186.886719 38.050781 C 185.667969 36.832031 184.421875 35.644531 183.144531 34.488281 C 181.867188 33.332031 180.5625 32.207031 179.230469 31.113281 C 177.898438 30.019531 176.542969 28.957031 175.15625 27.929688 C 173.773438 26.90625 172.363281 25.910156 170.933594 24.953125 C 169.5 23.996094 168.042969 23.074219 166.566406 22.1875 C 165.089844 21.300781 163.589844 20.449219 162.070312 19.636719 C 160.550781 18.824219 159.011719 18.050781 157.453125 17.3125 C 155.898438 16.574219 154.324219 15.875 152.730469 15.214844 C 151.140625 14.554688 149.53125 13.933594 147.910156 13.351562 C 146.289062 12.769531 144.652344 12.226562 143.003906 11.726562 C 141.355469 11.226562 139.695312 10.765625 138.023438 10.34375 C 136.351562 9.921875 134.671875 9.542969 132.980469 9.207031 C 131.292969 8.871094 129.59375 8.574219 127.890625 8.320312 C 126.183594 8.0625 124.476562 7.851562 122.761719 7.679688 C 121.046875 7.507812 119.328125 7.382812 117.605469 7.292969 C 115.886719 7.207031 114.164062 7.164062 112.441406 7.160156 Z M 112.441406 7.160156 " fill-opacity="1" fill-rule="nonzero"/></g></svg>