<svg xmlns="http://www.w3.org/2000/svg" xmlns:xlink="http://www.w3.org/1999/xlink" width="300" zoomAndPan="magnify" viewBox="0 0 224.87999 225" height="300" preserveAspectRatio="xMidYMid meet" version="1.0"><defs><clipPath id="f612225234"><path d="M 0 1 L 224 1 L 224 219.921875 L 0 219.921875 Z M 0 1 " clip-rule="nonzero"/></clipPath></defs><g clip-path="url(#f612225234)"><path fill="#004279" d="M 99.265625 2.273438 C 48.628906 7.882812 7.367188 48.742188 1.257812 99.296875 C 0.863281 102.472656 0.605469 105.660156 0.484375 108.855469 C 0.359375 112.054688 0.375 115.253906 0.527344 118.449219 C 0.679688 121.644531 0.96875 124.828125 1.394531 128 C 1.820312 131.171875 2.378906 134.320312 3.074219 137.445312 C 3.769531 140.570312 4.597656 143.65625 5.558594 146.710938 C 6.519531 149.761719 7.605469 152.769531 8.824219 155.726562 C 10.042969 158.6875 11.382812 161.589844 12.851562 164.433594 C 14.316406 167.277344 15.902344 170.054688 17.609375 172.761719 C 19.3125 175.46875 21.128906 178.101562 23.0625 180.652344 C 24.992188 183.207031 27.027344 185.671875 29.167969 188.050781 C 31.308594 190.425781 33.550781 192.707031 35.886719 194.894531 C 38.222656 197.082031 40.652344 199.164062 43.167969 201.140625 C 45.683594 203.117188 48.277344 204.984375 50.953125 206.738281 C 53.628906 208.496094 56.375 210.132812 59.191406 211.652344 C 62.007812 213.171875 64.886719 214.566406 67.820312 215.839844 C 70.757812 217.113281 73.742188 218.257812 76.777344 219.277344 C 82.363281 220.167969 84.152344 216.707031 84.152344 213.695312 L 84.152344 194.820312 C 53.222656 201.539062 46.636719 179.867188 46.636719 179.867188 C 41.515625 166.910156 34.242188 163.449219 34.242188 163.449219 C 24.078125 156.523438 35.035156 156.753906 35.035156 156.753906 C 46.195312 157.542969 52.117188 168.253906 52.117188 168.253906 C 61.828125 185.222656 78.238281 180.199219 84.601562 177.519531 C 85.605469 170.261719 88.554688 165.34375 91.636719 162.554688 C 66.808594 159.765625 40.828125 150.160156 40.828125 107.628906 C 40.828125 95.234375 45.074219 85.296875 52.328125 77.371094 C 51.214844 74.582031 47.300781 62.96875 53.441406 47.894531 C 53.441406 47.894531 62.824219 44.875 84.152344 59.285156 C 88.703125 58.058594 93.3125 57.140625 97.984375 56.519531 C 102.65625 55.902344 107.347656 55.59375 112.0625 55.59375 C 116.773438 55.59375 121.464844 55.902344 126.136719 56.519531 C 130.808594 57.140625 135.421875 58.058594 139.972656 59.285156 C 161.3125 44.875 170.679688 47.894531 170.679688 47.894531 C 176.8125 62.96875 172.910156 74.582031 171.792969 77.371094 C 179.050781 85.273438 183.292969 95.234375 183.292969 107.628906 C 183.292969 150.273438 157.164062 159.652344 132.273438 162.445312 C 136.289062 165.90625 139.972656 172.71875 139.972656 183.097656 L 139.972656 213.695312 C 139.972656 216.707031 141.757812 220.28125 147.457031 219.277344 C 149.074219 218.734375 150.679688 218.15625 152.273438 217.539062 C 153.863281 216.921875 155.441406 216.269531 157.003906 215.582031 C 158.566406 214.894531 160.109375 214.171875 161.640625 213.410156 C 163.167969 212.652344 164.679688 211.859375 166.171875 211.03125 C 167.664062 210.203125 169.136719 209.339844 170.589844 208.445312 C 172.042969 207.550781 173.476562 206.621094 174.886719 205.660156 C 176.296875 204.699219 177.683594 203.707031 179.050781 202.679688 C 180.414062 201.65625 181.753906 200.601562 183.070312 199.515625 C 184.390625 198.425781 185.679688 197.3125 186.945312 196.167969 C 188.210938 195.019531 189.449219 193.847656 190.660156 192.644531 C 191.871094 191.441406 193.054688 190.214844 194.210938 188.957031 C 195.367188 187.699219 196.492188 186.417969 197.589844 185.109375 C 198.6875 183.800781 199.753906 182.46875 200.789062 181.113281 C 201.824219 179.753906 202.828125 178.375 203.800781 176.972656 C 204.773438 175.570312 205.710938 174.144531 206.621094 172.699219 C 207.527344 171.253906 208.398438 169.789062 209.242188 168.300781 C 210.082031 166.816406 210.886719 165.3125 211.65625 163.789062 C 212.425781 162.265625 213.164062 160.726562 213.863281 159.167969 C 214.5625 157.613281 215.230469 156.039062 215.855469 154.453125 C 216.484375 152.867188 217.078125 151.265625 217.632812 149.652344 C 218.1875 148.039062 218.707031 146.410156 219.1875 144.773438 C 219.667969 143.136719 220.109375 141.488281 220.515625 139.828125 C 220.917969 138.171875 221.285156 136.503906 221.613281 134.828125 C 221.945312 133.15625 222.234375 131.472656 222.484375 129.785156 C 222.738281 128.097656 222.949219 126.402344 223.125 124.707031 C 223.296875 123.007812 223.433594 121.304688 223.53125 119.601562 C 223.625 117.898438 223.683594 116.191406 223.699219 114.484375 C 223.71875 112.777344 223.699219 111.070312 223.636719 109.367188 C 223.578125 107.660156 223.476562 105.957031 223.339844 104.253906 C 223.203125 102.554688 223.023438 100.855469 222.808594 99.164062 C 222.59375 97.46875 222.335938 95.78125 222.042969 94.101562 C 221.75 92.417969 221.417969 90.746094 221.050781 89.078125 C 220.679688 87.414062 220.269531 85.757812 219.824219 84.109375 C 219.378906 82.460938 218.894531 80.824219 218.375 79.199219 C 217.851562 77.574219 217.296875 75.960938 216.699219 74.359375 C 216.105469 72.761719 215.472656 71.175781 214.808594 69.605469 C 214.140625 68.03125 213.4375 66.476562 212.699219 64.9375 C 211.957031 63.402344 211.183594 61.878906 210.375 60.375 C 209.566406 58.871094 208.726562 57.390625 207.847656 55.925781 C 206.972656 54.460938 206.0625 53.015625 205.121094 51.59375 C 204.179688 50.167969 203.203125 48.769531 202.195312 47.390625 C 201.191406 46.011719 200.152344 44.65625 199.082031 43.324219 C 198.015625 41.996094 196.914062 40.691406 195.785156 39.410156 C 194.65625 38.128906 193.5 36.875 192.3125 35.648438 C 191.128906 34.417969 189.914062 33.21875 188.671875 32.046875 C 187.433594 30.875 186.164062 29.734375 184.871094 28.621094 C 183.578125 27.503906 182.257812 26.421875 180.917969 25.367188 C 179.574219 24.316406 178.207031 23.292969 176.816406 22.300781 C 175.425781 21.3125 174.015625 20.351562 172.582031 19.425781 C 171.148438 18.5 169.691406 17.609375 168.21875 16.75 C 166.742188 15.890625 165.25 15.0625 163.738281 14.273438 C 162.222656 13.480469 160.695312 12.726562 159.148438 12.003906 C 157.601562 11.285156 156.035156 10.597656 154.457031 9.949219 C 152.878906 9.300781 151.285156 8.6875 149.679688 8.113281 C 148.074219 7.535156 146.453125 6.996094 144.824219 6.496094 C 143.191406 5.992188 141.550781 5.527344 139.898438 5.101562 C 138.242188 4.675781 136.582031 4.285156 134.910156 3.933594 C 133.242188 3.582031 131.5625 3.269531 129.878906 2.996094 C 128.195312 2.722656 126.503906 2.488281 124.808594 2.292969 C 123.113281 2.09375 121.414062 1.9375 119.710938 1.820312 C 118.007812 1.699219 116.304688 1.621094 114.597656 1.582031 C 112.890625 1.539062 111.183594 1.539062 109.476562 1.578125 C 107.769531 1.613281 106.066406 1.691406 104.363281 1.808594 C 102.660156 1.921875 100.960938 2.078125 99.265625 2.273438 Z M 99.265625 2.273438 " fill-opacity="1" fill-rule="nonzero"/></g></svg>