<svg xmlns="http://www.w3.org/2000/svg" xmlns:xlink="http://www.w3.org/1999/xlink" width="300" zoomAndPan="magnify" viewBox="0 0 224.87999 225" height="300" preserveAspectRatio="xMidYMid meet" version="1.0"><defs><clipPath id="8cf5e836db"><path d="M 0 0.0585938 L 224.761719 0.0585938 L 224.761719 224.9375 L 0 224.9375 Z M 0 0.0585938 " clip-rule="nonzero"/></clipPath></defs><g clip-path="url(#8cf5e836db)"><path fill="#004279" d="M 206.09375 0.0585938 L 18.898438 0.0585938 C 8.550781 0.0585938 0.226562 8.496094 0.226562 18.734375 L 0.226562 206.265625 C 0.226562 216.617188 8.664062 224.941406 18.898438 224.941406 L 205.980469 224.941406 C 216.332031 224.941406 224.65625 216.503906 224.65625 206.265625 L 224.65625 18.734375 C 224.765625 8.496094 216.441406 0.0585938 206.09375 0.0585938 Z M 66.710938 185.566406 L 33.523438 185.566406 L 33.523438 85.894531 L 66.710938 85.894531 Z M 50.0625 73.859375 C 39.597656 73.859375 31.160156 65.421875 31.160156 54.957031 C 31.160156 44.496094 39.597656 36.058594 50.0625 36.058594 C 60.523438 36.058594 68.960938 44.496094 68.960938 54.957031 C 68.960938 65.421875 60.523438 73.859375 50.0625 73.859375 Z M 191.582031 185.566406 L 158.28125 185.566406 L 157.496094 126.394531 C 157.496094 126.394531 158.28125 110.644531 141.070312 110.757812 C 123.859375 110.867188 121.496094 126.394531 121.496094 126.394531 L 121.496094 185.566406 L 87.972656 185.566406 L 87.972656 85.894531 L 120.144531 85.894531 L 120.144531 99.621094 C 120.144531 99.621094 121.496094 95.121094 128.921875 89.832031 C 136.34375 84.542969 148.609375 83.417969 153.894531 83.644531 C 159.183594 83.871094 166.382812 82.96875 178.417969 91.292969 C 191.355469 100.183594 191.695312 123.46875 191.695312 123.46875 Z M 191.582031 185.566406 " fill-opacity="1" fill-rule="nonzero"/></g></svg>